<svg width="401" height="401" viewBox="0 0 401 401" fill="none" xmlns="http://www.w3.org/2000/svg">
<path d="M259.748 61.6893C269.941 61.6881 279.905 64.7097 288.381 70.3718C296.856 76.034 303.463 84.0825 307.364 93.4993C311.265 102.916 312.286 113.278 310.298 123.276C308.31 133.273 303.401 142.456 296.194 149.663C288.986 156.871 279.803 161.779 269.806 163.767C259.809 165.756 249.447 164.735 240.03 160.833C230.613 156.932 222.564 150.326 216.902 141.85C211.24 133.375 208.219 123.41 208.22 113.217C208.221 99.5515 213.65 86.4458 223.313 76.7827C232.976 67.1195 246.082 61.6903 259.748 61.6893ZM302.948 113.223C302.951 104.676 300.419 96.3199 295.672 89.2117C290.926 82.1035 284.178 76.5624 276.282 73.2894C268.386 70.0163 259.697 69.1581 251.314 70.8235C242.93 72.4888 235.229 76.6029 229.184 82.6453C223.139 88.6877 219.021 96.3871 217.352 104.77C215.683 113.153 216.537 121.842 219.806 129.739C223.076 137.636 228.614 144.387 235.72 149.137C242.826 153.886 251.18 156.422 259.728 156.423H259.74C265.415 156.426 271.035 155.31 276.279 153.14C281.523 150.97 286.288 147.788 290.302 143.775C294.316 139.763 297.499 134.999 299.671 129.756C301.843 124.512 302.961 118.893 302.96 113.217L302.948 113.223Z" fill="#FFC077"/>
<path d="M260.618 114.741L260.354 114.917C260.445 114.864 260.533 114.805 260.618 114.741Z" fill="#2B1F1F"/>
<path d="M259.994 115.061C260.107 115.027 260.217 114.985 260.324 114.935C260.218 114.987 260.107 115.029 259.994 115.061Z" fill="#2B1F1F"/>
<path d="M257.626 113.295C257.616 113.387 257.616 113.48 257.626 113.571C257.618 113.479 257.618 113.387 257.626 113.295Z" fill="#2B1F1F"/>
<path d="M260.774 114.597L260.618 114.743C260.533 114.806 260.445 114.864 260.354 114.917H260.324C260.217 114.967 260.107 115.009 259.994 115.043C259.937 115.063 259.878 115.077 259.818 115.085H259.748C259.656 115.093 259.564 115.093 259.472 115.085C259.376 115.093 259.28 115.093 259.184 115.085H259.124C259.064 115.077 259.006 115.063 258.95 115.043C258.654 114.958 258.384 114.798 258.168 114.579C258.035 114.446 257.922 114.295 257.832 114.129C257.781 114.023 257.739 113.912 257.706 113.799C257.686 113.743 257.672 113.685 257.664 113.625C257.662 113.601 257.662 113.577 257.664 113.553C257.654 113.462 257.654 113.369 257.664 113.277C257.664 113.035 257.711 112.795 257.804 112.572C257.897 112.348 258.032 112.144 258.204 111.973L261.348 108.817V113.277C261.348 113.525 261.297 113.77 261.198 113.997C261.1 114.224 260.955 114.429 260.774 114.597Z" fill="#2B1F1F"/>
<path d="M261.314 80.5053V108.091C260.096 107.73 258.789 107.813 257.626 108.325V80.5053C257.626 80.0162 257.82 79.5472 258.166 79.2014C258.512 78.8556 258.981 78.6613 259.47 78.6613C259.712 78.661 259.952 78.7085 260.176 78.8011C260.4 78.8937 260.603 79.0295 260.774 79.2008C260.946 79.3721 261.081 79.5755 261.174 79.7993C261.266 80.0232 261.314 80.2631 261.314 80.5053Z" fill="#2B1F1F"/>
<path d="M261.314 108.091V108.843L258.166 111.991C257.994 112.162 257.859 112.366 257.766 112.59C257.673 112.813 257.626 113.053 257.626 113.295V108.325C258.789 107.813 260.096 107.73 261.314 108.091Z" fill="#2B1F1F"/>
<path d="M275.126 100.251L264.57 110.817C263.997 109.686 263.042 108.794 261.874 108.299L272.512 97.6553C272.679 97.4685 272.882 97.3178 273.11 97.2122C273.337 97.1066 273.583 97.0484 273.834 97.0411C274.084 97.0338 274.334 97.0776 274.567 97.1698C274.8 97.262 275.011 97.4008 275.189 97.5775C275.367 97.7542 275.507 97.9653 275.6 98.1978C275.694 98.4303 275.739 98.6795 275.733 98.93C275.727 99.1806 275.67 99.4273 275.566 99.6551C275.461 99.883 275.312 100.087 275.126 100.255V100.251Z" fill="#2B1F1F"/>
<path d="M261.874 108.289C263.042 108.784 263.997 109.676 264.57 110.807L260.77 114.607C260.943 114.438 261.08 114.235 261.173 114.011C261.265 113.788 261.312 113.547 261.31 113.305V108.843L261.864 108.289H261.874Z" fill="#2B1F1F"/>
<path d="M265.148 113.217C265.149 114.183 264.889 115.131 264.396 115.962C263.903 116.792 263.194 117.474 262.345 117.934C261.497 118.395 260.539 118.618 259.574 118.58C258.609 118.541 257.672 118.243 256.863 117.716C256.054 117.189 255.402 116.453 254.976 115.586C254.551 114.719 254.367 113.753 254.445 112.79C254.523 111.828 254.86 110.904 255.42 110.117C255.98 109.33 256.742 108.709 257.626 108.319V113.289C257.618 113.381 257.618 113.473 257.626 113.565C257.624 113.589 257.624 113.613 257.626 113.637C257.634 113.697 257.648 113.755 257.668 113.811C257.701 113.924 257.744 114.035 257.794 114.141C257.884 114.307 257.997 114.458 258.13 114.591C258.346 114.81 258.616 114.97 258.912 115.055C258.968 115.075 259.026 115.089 259.086 115.097H259.146C259.242 115.105 259.338 115.105 259.434 115.097C259.526 115.105 259.618 115.105 259.71 115.097H259.782C259.842 115.089 259.901 115.075 259.958 115.055C260.071 115.023 260.182 114.981 260.288 114.929H260.318L260.582 114.755L260.748 114.617L264.548 110.817C264.933 111.559 265.139 112.381 265.148 113.217Z" fill="#F5FCFF"/>
<path d="M118.548 206.269C119.42 205.393 120.458 204.698 121.6 204.225C122.742 203.752 123.967 203.509 125.204 203.511C127.552 203.558 129.808 204.434 131.572 205.985L131.866 206.269C132.741 207.144 133.436 208.182 133.909 209.325C134.382 210.469 134.625 211.694 134.624 212.931C134.623 214.018 134.436 215.097 134.072 216.121C132.983 215.136 131.838 214.215 130.642 213.363C130.192 213.048 129.664 212.862 129.115 212.826C128.567 212.79 128.019 212.906 127.532 213.16C127.045 213.414 126.637 213.798 126.352 214.268C126.068 214.738 125.918 215.278 125.92 215.827H124.828C124.832 215.131 124.594 214.455 124.154 213.915C123.715 213.376 123.101 213.005 122.419 212.868C121.736 212.731 121.027 212.836 120.413 213.164C119.799 213.492 119.319 214.024 119.054 214.667C119.012 214.763 118.808 215.267 118.508 216.043L118.046 215.827V209.055H116.622C117.088 208.017 117.741 207.073 118.548 206.269Z" fill="#2B1F1F"/>
<path d="M134.092 216.121C133.39 218.067 132.065 219.727 130.324 220.843C129.347 219.925 128.312 219.072 127.224 218.289C126.561 217.847 126.101 217.159 125.945 216.378C125.789 215.596 125.949 214.784 126.392 214.121C126.834 213.458 127.522 212.998 128.303 212.842C129.085 212.686 129.897 212.847 130.56 213.289L130.662 213.359C131.858 214.212 133.003 215.134 134.092 216.121Z" fill="#2B1F1F"/>
<path d="M142.424 235.459C143.033 236.311 143.433 237.294 143.594 238.328C143.754 239.363 143.67 240.421 143.348 241.417C143.024 242.403 142.438 243.281 141.652 243.957C140.862 244.634 139.899 245.075 138.872 245.231L138.578 245.279C137.922 245.393 137.292 245.573 136.492 245.785L136.822 245.261C139.04 242.1 140.811 238.647 142.086 235.001L142.424 235.459Z" fill="#F5FCFF"/>
<path d="M134.512 224.447L142.094 235.003C140.82 238.649 139.048 242.102 136.83 245.263L136.5 245.787C134.485 246.319 132.438 246.72 130.372 246.987C129.841 247.065 129.302 247.065 128.772 246.987C129.686 245.323 130.726 243.671 131.772 242.043C134.128 238.319 136.572 234.473 136.65 231.465C136.507 229.029 135.569 226.706 133.978 224.855L134.512 224.447Z" fill="#2B1F1F"/>
<path d="M222.11 257.417C222.146 266.501 207.222 276.041 207.222 276.041L206.754 276.107C206.514 274.437 206.218 272.749 205.882 271.091C210.058 268.219 217.508 262.805 218.12 257.273C218.534 253.555 218.156 251.031 215.17 249.943C218.312 249.571 222.084 250.509 222.11 257.417Z" fill="#F5FCFF"/>
<path d="M373.38 257.993C374.804 264.409 374.132 267.697 371.71 269.047C370.688 269.299 369.637 269.408 368.586 269.373V269.017C372.15 255.333 362.64 256.853 360.176 253.999C357.712 251.145 358.866 245.317 357.776 242.343C356.686 239.369 353.432 239.015 351.714 238.067C348.944 236.535 347.604 232.701 347.55 227.577C347.55 225.211 346.998 222.777 345.466 221.899C341.434 219.599 339.416 226.875 339.338 227.157C338.482 225.393 337.445 223.722 336.244 222.171C336.144 221.698 336.018 221.23 335.866 220.771L336.244 220.645C337.012 218.151 339.044 214.349 342.126 213.159C342.511 213.017 342.916 212.932 343.326 212.907C346.486 212.707 350.926 215.641 351.738 222.165C352.686 229.565 354.138 231.819 355.9 232.653C357.662 233.487 360.9 233.963 361.962 236.931C363.024 239.899 361.842 245.731 364.362 248.585C366.882 251.439 371.948 251.571 373.38 257.993Z" fill="#FFC077"/>
<path d="M134.512 224.447L133.954 224.847C132.856 223.409 131.633 222.071 130.3 220.847C132.041 219.731 133.366 218.071 134.068 216.125C137.72 219.405 142.844 225.197 142.634 231.673C142.589 232.802 142.408 233.922 142.094 235.007L134.512 224.447Z" fill="#2B1F1F"/>
<path d="M200.458 251.667C200.147 250.723 199.634 249.858 198.954 249.132C198.274 248.407 197.444 247.839 196.522 247.467C199.676 245.489 203.147 244.068 206.784 243.267C212.448 242.311 223.822 241.981 226.008 251.539C222.464 243.303 213.56 245.369 210.988 246.259C207.375 247.913 203.936 249.923 200.722 252.259H200.572C200.548 252.059 200.51 251.862 200.458 251.667Z" fill="white"/>
<path d="M343.294 212.925C342.884 212.95 342.479 213.035 342.094 213.177C339.006 214.377 336.98 218.177 336.212 220.663L335.834 220.789C335.402 219.462 334.631 218.272 333.595 217.337C332.56 216.401 331.297 215.754 329.934 215.459C329.149 215.238 328.346 215.091 327.534 215.021C327.836 213.878 328.489 212.858 329.401 212.105C330.313 211.351 331.438 210.903 332.618 210.821C336.278 210.834 339.902 211.548 343.294 212.925Z" fill="#F5FCFF"/>
<path d="M102.624 180.817C103.852 180.818 105.068 181.06 106.203 181.53C107.338 182 108.369 182.69 109.237 183.558C110.106 184.427 110.795 185.459 111.264 186.594C111.734 187.729 111.976 188.945 111.976 190.173V190.635C111.674 196.713 111.314 204.259 111.11 209.065H67.3098V203.617L57.1998 189.565C56.6095 188.739 56.258 187.766 56.1837 186.754C56.1095 185.741 56.3154 184.728 56.7789 183.824C57.2423 182.921 57.9455 182.162 58.8114 181.632C59.6773 181.102 60.6724 180.82 61.6878 180.817H102.624Z" fill="#F5FCFF"/>
<path d="M131.568 205.985C129.805 204.433 127.548 203.556 125.2 203.511C125.461 197.044 126.58 190.64 128.528 184.467C128.957 183.386 129.701 182.459 130.664 181.806C131.627 181.153 132.764 180.805 133.928 180.807H138.288C139.305 180.808 140.303 181.089 141.171 181.619C142.04 182.15 142.745 182.91 143.209 183.815C143.674 184.721 143.879 185.737 143.804 186.751C143.729 187.766 143.375 188.74 142.782 189.567L131.568 205.985Z" fill="#F5FCFF"/>
<path d="M302.196 202.255H319.926C319.233 204.313 317.933 206.114 316.198 207.42C314.463 208.726 312.373 209.477 310.204 209.573H294.386C292.216 209.476 290.127 208.726 288.392 207.42C286.658 206.114 285.359 204.313 284.666 202.255H302.196Z" fill="#2B1F1F"/>
<path d="M130.372 247.005C132.438 246.738 134.485 246.337 136.5 245.805C134.02 249.739 131.574 253.759 131.9 256.859C131.942 257.251 131.906 257.648 131.795 258.026C131.684 258.404 131.499 258.757 131.252 259.064C131.004 259.371 130.698 259.626 130.352 259.814C130.006 260.003 129.626 260.122 129.234 260.163C129.125 260.169 129.016 260.169 128.908 260.163C128.164 260.167 127.445 259.895 126.89 259.398C126.336 258.902 125.986 258.217 125.908 257.477C125.757 253.777 126.746 250.119 128.742 246.999C129.282 247.083 129.831 247.086 130.372 247.005Z" fill="#2B1F1F"/>
<path d="M45.1298 292.723C45.1298 295.985 69.7618 298.623 100.202 298.623C113.684 298.623 126.036 298.107 135.602 297.247H135.674C135.264 305.467 135.869 313.706 137.474 321.777L137.054 321.885C132.108 323.685 120.622 326.403 99.9738 326.403C87.4748 326.435 75.0349 324.689 63.0278 321.217C60.2075 320.37 57.6155 318.896 55.4458 316.905C46.8718 311.035 44.6798 301.825 44.6798 293.187V292.717L45.1298 292.723Z" fill="#2B1F1F"/>
<path d="M67.3037 215.827C66.4342 215.785 65.6142 215.41 65.0138 214.779C64.4133 214.149 64.0784 213.312 64.0784 212.441C64.0784 211.571 64.4133 210.733 65.0138 210.103C65.6142 209.473 66.4342 209.098 67.3037 209.055V215.827Z" fill="#2B1F1F"/>
<path d="M196.522 247.481C197.445 247.851 198.276 248.419 198.956 249.144C199.636 249.87 200.149 250.736 200.458 251.681C200.51 251.878 200.548 252.079 200.572 252.281C201.442 259.195 187.704 268.417 169.188 273.193C150.672 277.969 134.23 276.539 131.616 270.093C131.529 269.9 131.459 269.699 131.406 269.493C130.206 264.893 135.93 259.111 145.446 254.305C150.949 251.587 156.724 249.461 162.676 247.961C177.01 244.255 190.124 244.279 196.522 247.481Z" fill="#F5FCFF"/>
<path d="M360.134 254.017C362.628 256.865 372.15 255.345 368.534 269.035V269.385C364.768 269.481 358.7 269.185 356.184 268.093C352.384 266.441 356.49 260.883 356.334 256.679C356.178 252.475 352.08 254.113 349.196 250.219C345.796 245.643 349.646 242.259 346.848 240.975C344.961 239.973 343.362 238.504 342.204 236.709C341.773 233.386 340.781 230.161 339.272 227.169C339.35 226.887 341.368 219.611 345.4 221.911C346.932 222.783 347.46 225.223 347.484 227.589C347.538 232.713 348.884 236.547 351.648 238.079C353.366 239.027 356.648 239.389 357.71 242.355C358.772 245.321 357.634 251.157 360.134 254.017Z" fill="#2B1F1F"/>
<path d="M201.304 332.447C201.304 332.447 237.524 335.625 220.06 343.139C198.998 352.211 166.166 349.015 158.638 346.383C149.638 343.223 149.398 339.571 149.392 339.383C154.566 342.549 161.564 343.877 171.748 343.721H171.85C187.62 343.975 195.748 340.671 201.304 332.447Z" fill="#2B1F1F"/>
<path d="M135.984 290.945C135.888 292.261 135.756 294.483 135.672 297.247H135.6C126.03 298.107 113.666 298.617 100.2 298.617C69.7838 298.617 45.1278 295.979 45.1278 292.717C45.1278 289.455 69.7618 286.817 100.202 286.817C113.912 286.817 125.848 287.351 135.486 288.241L135.828 288.131C136.38 289.931 136.994 291.731 137.666 293.497C137.224 293.221 136.852 292.847 136.578 292.404C136.305 291.961 136.136 291.462 136.086 290.943L135.984 290.945Z" fill="#FFC077"/>
<path d="M309.25 213.711V214.311H295.348V209.571H309.256L309.25 213.711Z" fill="#FFC077"/>
<path d="M141.902 331.851C143.786 334.905 146.349 337.483 149.392 339.385C133.61 344.653 83.3638 343.139 64.0478 337.211C60.1582 336.124 56.7473 333.76 54.3638 330.499C57.4278 331.767 72.6338 337.811 99.9918 337.811C114.187 338.023 128.328 336.012 141.902 331.851Z" fill="#2B1F1F"/>
<path d="M336.224 222.183H268.374C268.608 220.556 269.335 219.04 270.456 217.838C271.577 216.636 273.039 215.806 274.646 215.459C277.264 214.589 288.078 214.361 295.342 214.313H309.25C315.144 214.355 323.23 214.513 327.536 215.021C328.348 215.091 329.151 215.238 329.936 215.459C331.299 215.754 332.562 216.401 333.597 217.337C334.633 218.272 335.404 219.462 335.836 220.789C335.991 221.246 336.121 221.712 336.224 222.183Z" fill="white"/>
<path d="M111.1 209.055H116.622C116.067 210.272 115.782 211.594 115.786 212.931C115.784 213.914 115.936 214.891 116.236 215.827H110.908C110.908 214.571 110.908 213.573 110.95 212.931C110.974 212.107 111.028 210.743 111.1 209.055Z" fill="#2B1F1F"/>
<path d="M124.828 215.827C124.826 216.225 124.746 216.618 124.594 216.985C124.594 217.033 123.722 219.095 122.756 222.021C120.688 221.465 118.871 220.221 117.606 218.493C117.948 217.515 118.262 216.693 118.508 216.043C118.808 215.255 119.012 214.763 119.054 214.667C119.319 214.024 119.799 213.492 120.413 213.164C121.027 212.836 121.736 212.731 122.419 212.868C123.101 213.005 123.715 213.376 124.154 213.915C124.594 214.455 124.832 215.131 124.828 215.827Z" fill="#2B1F1F"/>
<path d="M118.046 215.827L118.508 216.043C118.262 216.685 117.948 217.515 117.606 218.493C117.012 217.682 116.549 216.783 116.236 215.827H118.046Z" fill="#2B1F1F"/>
<path d="M110.908 238.617C110.919 241.191 109.917 243.666 108.118 245.507C106.32 247.348 103.869 248.408 101.296 248.457C100.208 248.457 99.1818 248.493 98.3278 248.493C85.9459 248.337 73.5928 247.262 61.3698 245.279L61.1038 245.237C60.0742 245.08 59.1089 244.638 58.3165 243.962C57.524 243.287 56.9357 242.403 56.6178 241.411C56.295 240.416 56.211 239.36 56.3726 238.326C56.5341 237.293 56.9367 236.312 57.5478 235.463L67.2978 221.879V215.831H110.898C110.866 221.161 110.884 231.151 110.908 238.617Z" fill="#F5FCFF"/>
<path d="M358.506 313.323C358.506 313.323 388.484 320.839 339.93 329.021C292.41 337.021 254.16 325.327 246.092 313.323C246.092 313.323 258.636 325.339 302.292 325.339C351.46 325.327 358.506 313.323 358.506 313.323Z" fill="#2B1F1F"/>
<path d="M203.426 219.719C206.532 219.071 210.814 218.217 212.826 218.013C213.339 217.955 213.857 217.955 214.37 218.013C217.006 218.337 217.632 220.331 215.842 221.395C214.406 222.237 207.748 221.557 203.478 221.011C203.322 220.994 203.178 220.922 203.071 220.808C202.964 220.694 202.902 220.545 202.896 220.389C202.889 220.232 202.939 220.079 203.036 219.956C203.133 219.833 203.272 219.749 203.426 219.719Z" fill="#FFC077"/>
<path d="M206.068 293.307C206.43 292.039 206.742 290.693 207.006 289.281C206.999 289.195 207.013 289.109 207.048 289.029L207.414 289.095C207.414 289.095 209.848 315.217 204.348 327.017C203.481 328.895 202.467 330.701 201.314 332.417C195.758 340.617 187.63 343.945 171.878 343.699H171.776C161.592 343.855 154.594 342.499 149.42 339.361C146.367 337.467 143.793 334.893 141.9 331.839C140.911 330.287 140.03 328.669 139.262 326.997C138.503 325.315 137.91 323.563 137.49 321.765C135.872 313.695 135.267 305.455 135.69 297.235C135.774 294.471 135.906 292.249 136.002 290.933H136.104C136.154 291.452 136.323 291.951 136.596 292.394C136.87 292.837 137.242 293.211 137.684 293.487C142.172 297.019 155.736 299.585 171.766 299.585C188.076 299.603 201.846 296.935 206.068 293.307Z" fill="#FFC077"/>
<path d="M133.948 224.849C135.533 226.704 136.471 229.024 136.62 231.459C136.524 234.459 134.098 238.313 131.742 242.037C130.716 243.665 129.676 245.317 128.742 246.981C127.388 246.789 126.147 246.122 125.24 245.098C124.333 244.075 123.82 242.762 123.792 241.395C123.666 235.075 123.552 225.775 123.894 222.237C124.318 222.297 124.746 222.327 125.174 222.327C126.983 222.329 128.754 221.808 130.274 220.825C131.615 222.055 132.845 223.402 133.948 224.849Z" fill="#F5FCFF"/>
<path d="M118.046 209.055V215.827H116.246C115.946 214.891 115.794 213.914 115.796 212.931C115.792 211.594 116.077 210.272 116.632 209.055H118.046Z" fill="#2B1F1F"/>
<path d="M169.188 273.199C187.704 268.423 201.442 259.199 200.572 252.287H200.722C200.722 252.287 201.322 253.933 202.14 256.599C203.631 261.362 204.88 266.196 205.882 271.085C206.218 272.743 206.514 274.431 206.754 276.101C207.036 278.041 207.24 279.963 207.354 281.813C207.516 284.217 207.414 286.632 207.048 289.013C207.054 289.099 207.04 289.186 207.006 289.265C206.742 290.677 206.406 292.023 206.068 293.291C201.868 296.891 188.068 299.587 171.748 299.587C155.718 299.587 142.148 297.021 137.666 293.489C136.994 291.717 136.38 289.889 135.828 288.123C134.016 282.215 132.593 276.195 131.568 270.101H131.616C134.23 276.545 150.696 277.969 169.188 273.199Z" fill="white"/>
<path d="M227.24 256.203C229.012 269.047 207.384 281.803 207.384 281.803H207.324C207.222 279.953 207.018 278.031 206.724 276.091L207.192 276.025C207.192 276.025 222.116 266.497 222.078 257.401C222.078 250.493 218.278 249.555 215.14 249.915C213.854 250.091 212.593 250.412 211.38 250.871C208.302 252.467 205.365 254.321 202.602 256.415L202.11 256.577C201.28 253.911 200.692 252.265 200.692 252.265C203.927 249.953 207.374 247.954 210.988 246.293C213.56 245.403 222.464 243.337 226.008 251.573C226.627 253.053 227.041 254.611 227.24 256.203Z" fill="white"/>
<path d="M214.378 217.977C219.454 218.397 232.358 224.837 235.68 235.777C240.336 251.115 238.582 272.093 247.618 285.509C248.776 287.254 250.102 288.882 251.576 290.369L251.66 290.285C249.552 273.121 257.848 264.843 257.848 264.843C257.062 261.066 257.057 257.167 257.834 253.388C258.611 249.609 260.153 246.028 262.366 242.867C261.698 235.462 263.839 228.076 268.366 222.177H336.216C337.418 223.727 338.455 225.398 339.31 227.163C340.822 230.164 341.814 233.4 342.242 236.733C342.502 238.778 342.502 240.847 342.242 242.891C344.449 246.05 345.988 249.627 346.764 253.401C347.54 257.176 347.537 261.07 346.754 264.843C346.754 264.843 355.032 273.121 352.928 290.285C352.928 290.285 360.606 301.099 358.498 313.317C358.498 313.317 351.452 325.333 302.298 325.333C258.636 325.333 246.098 313.317 246.098 313.317C245.452 309.257 245.691 305.106 246.8 301.147C243.961 298.418 241.418 295.397 239.212 292.135C230.212 278.721 233.734 256.535 229.078 241.203C224.422 225.871 203.478 221.023 203.478 221.023C207.748 221.569 214.406 222.223 215.842 221.407C217.642 220.343 217.006 218.349 214.37 218.025L214.378 217.977Z" fill="#F5FCFF"/>
<path d="M123.92 222.255C123.527 222.201 123.139 222.123 122.756 222.021C123.722 219.095 124.556 217.033 124.594 216.985C124.746 216.618 124.826 216.225 124.828 215.827H125.916C125.916 216.311 126.032 216.787 126.256 217.216C126.479 217.644 126.803 218.013 127.2 218.289C128.288 219.072 129.323 219.925 130.3 220.843C128.78 221.826 127.009 222.347 125.2 222.345C124.772 222.345 124.344 222.315 123.92 222.255Z" fill="#2B1F1F"/>
<path d="M319.926 202.255H284.666C287.666 197.995 302.196 197.839 302.196 197.839C302.196 197.839 316.948 197.995 319.926 202.255Z" fill="white"/>
<path d="M67.3478 209.055H111.1C111.028 210.743 110.974 212.095 110.95 212.931C110.95 213.573 110.914 214.571 110.908 215.827H67.3078V209.055H67.3478Z" fill="#2B1F1F"/>
<path d="M121.764 246.915C123.23 252.237 123.868 257.753 123.656 263.269C122.568 273.445 110.878 275.993 110.386 276.095C110.188 276.136 109.987 276.158 109.786 276.161C109.034 276.173 108.306 275.902 107.745 275.402C107.184 274.902 106.831 274.21 106.755 273.463C106.68 272.715 106.888 271.966 107.338 271.365C107.788 270.763 108.447 270.352 109.186 270.213C109.252 270.213 117.086 268.413 117.71 262.631C117.822 257.763 117.215 252.905 115.91 248.213C114.921 244.287 114.284 240.28 114.006 236.241C113.82 230.441 116.06 222.969 117.606 218.517C118.871 220.245 120.688 221.489 122.756 222.045C121.106 226.538 120.173 231.263 119.992 236.045C120.272 239.712 120.865 243.349 121.764 246.915Z" fill="#2B1F1F"/>
<path d="M208.218 113.223C208.218 126.891 213.647 139.999 223.312 149.663C232.976 159.328 246.084 164.757 259.752 164.757C273.419 164.757 286.527 159.328 296.192 149.663C305.856 139.999 311.286 126.891 311.286 113.223C311.286 106.456 309.953 99.7545 307.363 93.5021C304.773 87.2497 300.977 81.5686 296.192 76.7832C291.406 71.9979 285.725 68.2019 279.473 65.6121C273.221 63.0222 266.519 61.6893 259.752 61.6893C252.984 61.6893 246.283 63.0222 240.031 65.6121C233.778 68.2019 228.097 71.9979 223.312 76.7832C218.526 81.5686 214.73 87.2497 212.141 93.5021C209.551 99.7545 208.218 106.456 208.218 113.223Z" stroke="#2B1F1F" stroke-width="1.202" stroke-linecap="round" stroke-linejoin="round"/>
<path d="M302.96 113.217C302.963 121.765 300.43 130.121 295.684 137.23C290.937 144.338 284.188 149.879 276.292 153.152C268.396 156.425 259.707 157.283 251.323 155.617C242.939 153.951 235.238 149.836 229.193 143.792C223.148 137.749 219.031 130.049 217.363 121.666C215.695 113.283 216.55 104.593 219.82 96.6959C223.091 88.7987 228.63 82.049 235.737 77.3002C242.844 72.5514 251.2 70.0169 259.748 70.0173H259.76C271.217 70.0173 282.205 74.5687 290.307 82.6703C298.408 90.7718 302.96 101.76 302.96 113.217Z" stroke="#2B1F1F" stroke-width="1.202" stroke-linecap="round" stroke-linejoin="round"/>
<path d="M295.342 209.573V213.711" stroke="#2B1F1F" stroke-width="1.202" stroke-linecap="round" stroke-linejoin="round"/>
<path d="M302.196 209.573H310.196C312.365 209.477 314.455 208.726 316.19 207.42C317.925 206.114 319.225 204.313 319.918 202.255H284.658C285.35 204.313 286.65 206.114 288.384 207.42C290.119 208.726 292.208 209.476 294.378 209.573H302.188" stroke="#2B1F1F" stroke-width="1.202" stroke-linecap="round" stroke-linejoin="round"/>
<path d="M309.25 209.573V213.711" stroke="#2B1F1F" stroke-width="1.202" stroke-linecap="round" stroke-linejoin="round"/>
<path d="M319.926 202.255C316.926 197.995 302.196 197.839 302.196 197.839C302.196 197.839 287.652 197.995 284.666 202.255" stroke="#2B1F1F" stroke-width="1.202" stroke-linecap="round" stroke-linejoin="round"/>
<path d="M336.224 222.183C336.124 221.71 335.998 221.242 335.846 220.783C335.414 219.456 334.643 218.266 333.607 217.331C332.572 216.395 331.309 215.748 329.946 215.453C329.161 215.232 328.358 215.085 327.546 215.015C323.24 214.505 315.146 214.349 309.26 214.307H295.348C288.084 214.355 277.272 214.583 274.652 215.453C273.045 215.8 271.583 216.63 270.462 217.832C269.341 219.034 268.614 220.55 268.38 222.177L336.224 222.183Z" stroke="#2B1F1F" stroke-width="1.202" stroke-linecap="round" stroke-linejoin="round"/>
<path d="M251.66 290.291C249.552 273.127 257.848 264.849 257.848 264.849C257.062 261.072 257.057 257.173 257.834 253.394C258.611 249.615 260.153 246.034 262.366 242.873C261.698 235.468 263.839 228.082 268.366 222.183" stroke="#2B1F1F" stroke-width="1.202" stroke-linecap="round" stroke-linejoin="round"/>
<path d="M339.318 227.175C340.83 230.174 341.822 233.408 342.25 236.739C342.51 238.784 342.51 240.853 342.25 242.897C344.457 246.056 345.996 249.633 346.772 253.407C347.548 257.182 347.545 261.076 346.762 264.849C346.762 264.849 355.04 273.127 352.936 290.291C352.936 290.291 360.614 301.105 358.506 313.323C358.506 313.323 351.46 325.339 302.306 325.339C258.644 325.339 246.106 313.323 246.106 313.323C245.46 309.263 245.699 305.112 246.808 301.153" stroke="#2B1F1F" stroke-width="1.202" stroke-linecap="round" stroke-linejoin="round"/>
<path d="M336.224 222.183C337.426 223.733 338.462 225.404 339.318 227.169" stroke="#2B1F1F" stroke-width="1.202" stroke-linecap="round" stroke-linejoin="round"/>
<path d="M264.024 266.279C264.024 266.279 276.37 270.729 298.712 270.753C327.912 270.783 339.93 266.279 339.93 266.279" stroke="#2B1F1F" stroke-width="1.202" stroke-linecap="round" stroke-linejoin="round"/>
<path d="M270.254 243.347C279.882 244.986 289.637 245.764 299.404 245.673C322.418 245.673 333.094 243.347 333.094 243.347" stroke="#2B1F1F" stroke-width="1.202" stroke-linecap="round" stroke-linejoin="round"/>
<path d="M261.622 290.909C273.584 294.847 286.119 296.766 298.712 296.587C327.912 296.587 341.732 290.909 341.732 290.909" stroke="#2B1F1F" stroke-width="1.202" stroke-linecap="round" stroke-linejoin="round"/>
<path d="M203.48 221.017C203.48 221.017 224.416 225.865 229.08 241.197C233.744 256.529 230.18 278.713 239.214 292.129C241.42 295.391 243.963 298.412 246.802 301.141C250.743 305.045 255.305 308.266 260.302 310.675" stroke="#2B1F1F" stroke-width="1.202" stroke-linecap="round" stroke-linejoin="round"/>
<path d="M214.378 217.977C219.454 218.397 232.358 224.837 235.68 235.777C240.336 251.115 238.582 272.093 247.618 285.509C248.776 287.254 250.102 288.882 251.576 290.369C254.504 293.532 258.401 295.631 262.654 296.335" stroke="#2B1F1F" stroke-width="1.202" stroke-linecap="round" stroke-linejoin="round"/>
<path d="M327.536 215.017C327.838 213.874 328.491 212.854 329.403 212.101C330.315 211.347 331.44 210.899 332.62 210.817C336.279 210.82 339.904 211.53 343.294 212.909" stroke="#2B1F1F" stroke-width="1.202" stroke-linecap="round" stroke-linejoin="round"/>
<path d="M339.318 227.175C339.396 226.893 341.414 219.617 345.446 221.917C346.978 222.789 347.506 225.229 347.53 227.595C347.584 232.719 348.93 236.553 351.694 238.085C353.412 239.033 356.694 239.395 357.756 242.361C358.818 245.327 357.634 251.161 360.156 254.017C362.678 256.873 372.172 255.345 368.556 269.035" stroke="#2B1F1F" stroke-width="1.202" stroke-linecap="round" stroke-linejoin="round"/>
<path d="M342.256 236.739C343.407 238.54 345.008 240.01 346.9 241.005C349.7 242.265 345.854 245.673 349.248 250.249C352.132 254.143 356.23 252.509 356.386 256.709C356.542 260.909 352.438 266.453 356.236 268.123C358.752 269.215 364.82 269.511 368.586 269.415C369.637 269.45 370.688 269.341 371.71 269.089C374.11 267.739 374.804 264.451 373.38 258.035C371.956 251.619 366.832 251.493 364.38 248.635C361.928 245.777 363.07 239.955 361.98 236.981C360.89 234.007 357.704 233.539 355.918 232.703C354.132 231.867 352.704 229.615 351.756 222.215C350.92 215.691 346.474 212.747 343.344 212.957C342.934 212.982 342.529 213.067 342.144 213.209C339.056 214.409 337.03 218.209 336.262 220.695" stroke="#2B1F1F" stroke-width="1.202" stroke-linecap="round" stroke-linejoin="round"/>
<path d="M214.372 218.017C213.859 217.959 213.341 217.959 212.828 218.017C210.814 218.217 206.532 219.075 203.428 219.723C203.274 219.753 203.137 219.837 203.04 219.96C202.943 220.083 202.893 220.236 202.9 220.392C202.906 220.549 202.968 220.698 203.075 220.812C203.182 220.926 203.326 220.998 203.482 221.015C207.752 221.561 214.41 222.215 215.846 221.399C217.634 220.331 216.996 218.337 214.372 218.017Z" stroke="#2B1F1F" stroke-width="1.202" stroke-linecap="round" stroke-linejoin="round"/>
<path d="M246.092 313.323C254.16 325.339 292.41 337.023 339.93 329.021C388.484 320.839 358.506 313.323 358.506 313.323" stroke="#2B1F1F" stroke-width="1.202" stroke-linecap="round" stroke-linejoin="round"/>
<path d="M261.314 108.091C261.503 108.146 261.688 108.212 261.868 108.291" stroke="#2B1F1F" stroke-width="1.202" stroke-linecap="round" stroke-linejoin="round"/>
<path d="M264.57 110.817C265.047 111.762 265.233 112.827 265.105 113.878C264.977 114.929 264.541 115.918 263.85 116.72C263.16 117.523 262.247 118.103 261.227 118.387C260.208 118.67 259.127 118.645 258.121 118.315C257.115 117.984 256.231 117.363 255.578 116.529C254.926 115.696 254.535 114.687 254.456 113.632C254.376 112.576 254.612 111.521 255.132 110.599C255.653 109.677 256.435 108.931 257.38 108.453C257.46 108.411 257.542 108.373 257.626 108.335" stroke="#2B1F1F" stroke-width="1.202" stroke-linecap="round" stroke-linejoin="round"/>
<path d="M259.788 70.7793V75.5853" stroke="#2B1F1F" stroke-width="1.202" stroke-linecap="round" stroke-linejoin="round"/>
<path d="M259.788 150.679V155.485" stroke="#2B1F1F" stroke-width="1.202" stroke-linecap="round" stroke-linejoin="round"/>
<path d="M217.344 113.223H222.158" stroke="#2B1F1F" stroke-width="1.202" stroke-linecap="round" stroke-linejoin="round"/>
<path d="M297.848 113.223H302.66" stroke="#2B1F1F" stroke-width="1.202" stroke-linecap="round" stroke-linejoin="round"/>
<path d="M229.9 83.3353L233.302 86.7353" stroke="#2B1F1F" stroke-width="1.202" stroke-linecap="round" stroke-linejoin="round"/>
<path d="M286.402 139.829L289.802 143.231" stroke="#2B1F1F" stroke-width="1.202" stroke-linecap="round" stroke-linejoin="round"/>
<path d="M229.9 143.357L233.302 139.955" stroke="#2B1F1F" stroke-width="1.202" stroke-linecap="round" stroke-linejoin="round"/>
<path d="M286.824 86.4353L290.224 83.0333" stroke="#2B1F1F" stroke-width="1.202" stroke-linecap="round" stroke-linejoin="round"/>
<path d="M242.576 74.5213L244.536 78.9133" stroke="#2B1F1F" stroke-width="1.202" stroke-linecap="round" stroke-linejoin="round"/>
<path d="M275.132 147.489L277.096 151.881" stroke="#2B1F1F" stroke-width="1.202" stroke-linecap="round" stroke-linejoin="round"/>
<path d="M221.112 130.579L225.504 128.619" stroke="#2B1F1F" stroke-width="1.202" stroke-linecap="round" stroke-linejoin="round"/>
<path d="M294.628 97.7773L299.018 95.8113" stroke="#2B1F1F" stroke-width="1.202" stroke-linecap="round" stroke-linejoin="round"/>
<path d="M278.694 75.1213L276.55 79.4293" stroke="#2B1F1F" stroke-width="1.202" stroke-linecap="round" stroke-linejoin="round"/>
<path d="M243.076 146.649L240.93 150.955" stroke="#2B1F1F" stroke-width="1.202" stroke-linecap="round" stroke-linejoin="round"/>
<path d="M221.778 94.1953L226.086 96.3413" stroke="#2B1F1F" stroke-width="1.202" stroke-linecap="round" stroke-linejoin="round"/>
<path d="M293.84 130.079L298.148 132.225" stroke="#2B1F1F" stroke-width="1.202" stroke-linecap="round" stroke-linejoin="round"/>
<path d="M207.222 291.835C206.956 292.408 206.561 292.912 206.068 293.307C201.868 296.907 188.068 299.603 171.748 299.603C155.718 299.603 142.148 297.037 137.666 293.505C137.224 293.229 136.852 292.855 136.578 292.412C136.305 291.969 136.136 291.47 136.086 290.951" stroke="#2B1F1F" stroke-width="1.202" stroke-linecap="round" stroke-linejoin="round"/>
<path d="M202.632 301.885C196.462 304.485 184.94 306.211 171.748 306.211C158.556 306.211 147.026 304.475 140.862 301.885" stroke="#2B1F1F" stroke-width="1.202" stroke-linecap="round" stroke-linejoin="round"/>
<path d="M149.386 339.385C146.345 337.483 143.784 334.905 141.902 331.851C140.913 330.299 140.032 328.681 139.264 327.009C138.505 325.327 137.912 323.574 137.492 321.777C135.874 313.707 135.269 305.467 135.692 297.247C135.776 294.483 135.908 292.261 136.004 290.945C136.064 290.099 136.106 289.629 136.106 289.629" stroke="#2B1F1F" stroke-width="1.202" stroke-linecap="round" stroke-linejoin="round"/>
<path d="M207.384 289.083C207.384 289.083 209.818 315.211 204.32 327.009C203.453 328.887 202.439 330.693 201.286 332.409C195.73 340.609 187.602 343.937 171.85 343.691H171.748C161.564 343.847 154.566 342.491 149.392 339.353" stroke="#2B1F1F" stroke-width="1.202" stroke-linecap="round" stroke-linejoin="round"/>
<path d="M196.522 247.481C197.445 247.851 198.276 248.419 198.956 249.144C199.636 249.87 200.149 250.736 200.458 251.681C200.51 251.878 200.548 252.079 200.572 252.281C201.442 259.195 187.704 268.417 169.188 273.193C150.672 277.969 134.23 276.539 131.616 270.093C131.529 269.9 131.459 269.699 131.406 269.493C130.206 264.893 135.93 259.111 145.446 254.305C150.949 251.587 156.724 249.461 162.676 247.961C177.01 244.255 190.124 244.279 196.522 247.481Z" stroke="#2B1F1F" stroke-width="1.202" stroke-linecap="round" stroke-linejoin="round"/>
<path d="M136.374 269.997C134.836 264.031 146.822 255.777 163.144 251.571C179.466 247.365 193.944 248.783 195.49 254.755" stroke="#2B1F1F" stroke-width="1.202" stroke-linecap="round" stroke-linejoin="round"/>
<path d="M198.974 264.505C190.357 270.82 180.59 275.391 170.222 277.963C159.613 280.868 148.51 281.497 137.642 279.807" stroke="#2B1F1F" stroke-width="1.202" stroke-linecap="round" stroke-linejoin="round"/>
<path d="M137.696 293.505C137.024 291.733 136.41 289.905 135.858 288.139C134.046 282.231 132.623 276.211 131.598 270.117" stroke="#2B1F1F" stroke-width="1.202" stroke-linecap="round" stroke-linejoin="round"/>
<path d="M200.722 252.281C200.722 252.281 201.322 253.927 202.14 256.593C203.631 261.355 204.88 266.19 205.882 271.079C206.218 272.737 206.514 274.425 206.754 276.095C207.036 278.035 207.24 279.957 207.354 281.807C207.516 284.211 207.414 286.626 207.048 289.007C207.054 289.093 207.04 289.18 207.006 289.259C206.742 290.671 206.406 292.017 206.068 293.285" stroke="#2B1F1F" stroke-width="1.202" stroke-linecap="round" stroke-linejoin="round"/>
<path d="M200.722 252.281C203.943 249.955 207.381 247.946 210.988 246.281C213.56 245.391 222.464 243.325 226.008 251.561C226.628 253.044 227.042 254.604 227.24 256.199C229.012 269.043 207.384 281.799 207.384 281.799" stroke="#2B1F1F" stroke-width="1.202" stroke-linecap="round" stroke-linejoin="round"/>
<path d="M202.632 256.431C205.395 254.337 208.332 252.483 211.41 250.887C212.632 250.435 213.901 250.122 215.194 249.955C218.336 249.595 222.11 250.555 222.134 257.441C222.17 266.525 207.246 276.065 207.246 276.065" stroke="#2B1F1F" stroke-width="1.202" stroke-linecap="round" stroke-linejoin="round"/>
<path d="M196.516 247.487C199.67 245.509 203.141 244.088 206.778 243.287C212.442 242.331 223.816 242.001 226.002 251.559" stroke="#2B1F1F" stroke-width="1.202" stroke-linecap="round" stroke-linejoin="round"/>
<path d="M215.194 249.955C218.194 251.043 218.558 253.555 218.144 257.285C217.544 262.817 210.082 268.231 205.906 271.103" stroke="#2B1F1F" stroke-width="1.202" stroke-linecap="round" stroke-linejoin="round"/>
<path d="M149.392 339.385C149.392 339.565 149.604 343.217 158.638 346.385C166.166 349.017 198.998 352.213 220.06 343.141C237.524 335.627 201.304 332.449 201.304 332.449" stroke="#2B1F1F" stroke-width="1.202" stroke-linecap="round" stroke-linejoin="round"/>
<path d="M135.732 180.817L156.668 142.017C156.923 141.532 157.049 140.989 157.033 140.441C157.017 139.892 156.86 139.357 156.577 138.888C156.293 138.418 155.893 138.03 155.415 137.76C154.938 137.491 154.398 137.349 153.85 137.349H149.11C148.006 137.349 146.935 137.721 146.07 138.405L143.434 140.479C141.946 141.654 140.115 142.309 138.219 142.345C136.324 142.381 134.469 141.796 132.938 140.679L129.64 138.279C128.801 137.671 127.792 137.343 126.756 137.343H46.1218C45.5731 137.344 45.034 137.487 44.5566 137.757C44.0792 138.028 43.6797 138.417 43.3969 138.887C43.1141 139.357 42.9574 139.892 42.9422 140.441C42.9269 140.989 43.0535 141.532 43.3098 142.017L64.2458 180.801" stroke="#2B1F1F" stroke-width="1.202" stroke-linecap="round" stroke-linejoin="round"/>
<path d="M67.3038 209.055V203.617L57.1938 189.565C56.6032 188.739 56.2516 187.765 56.1776 186.752C56.1036 185.739 56.31 184.725 56.7742 183.821C57.2384 182.918 57.9425 182.159 58.8092 181.63C59.676 181.1 60.6719 180.819 61.6878 180.817H102.606C103.834 180.818 105.05 181.06 106.185 181.53C107.32 182 108.351 182.69 109.219 183.558C110.088 184.427 110.777 185.459 111.246 186.594C111.716 187.729 111.958 188.945 111.958 190.173V190.635C111.656 196.713 111.296 204.259 111.092 209.065" stroke="#2B1F1F" stroke-width="1.202" stroke-linecap="round" stroke-linejoin="round"/>
<path d="M110.908 215.827C110.866 221.161 110.908 231.151 110.908 238.613C110.919 241.187 109.917 243.662 108.118 245.503C106.32 247.344 103.869 248.404 101.296 248.453C100.208 248.453 99.1818 248.489 98.3278 248.489C85.9459 248.333 73.5928 247.258 61.3698 245.275L61.1038 245.233C60.0742 245.076 59.1089 244.634 58.3165 243.958C57.524 243.283 56.9357 242.399 56.6178 241.407C56.295 240.412 56.211 239.356 56.3726 238.322C56.5341 237.289 56.9367 236.308 57.5478 235.459L67.2978 221.875V215.827" stroke="#2B1F1F" stroke-width="1.202" stroke-linecap="round" stroke-linejoin="round"/>
<path d="M131.568 205.985L142.768 189.567C143.36 188.743 143.714 187.771 143.791 186.759C143.868 185.746 143.665 184.732 143.204 183.827C142.743 182.923 142.042 182.163 141.178 181.63C140.313 181.097 139.319 180.813 138.304 180.807H133.96C132.796 180.805 131.659 181.153 130.696 181.806C129.733 182.459 128.989 183.386 128.56 184.467C126.612 190.64 125.493 197.044 125.232 203.511" stroke="#2B1F1F" stroke-width="1.202" stroke-linecap="round" stroke-linejoin="round"/>
<path d="M128.768 246.999C127.414 246.807 126.173 246.14 125.266 245.116C124.359 244.093 123.846 242.78 123.818 241.413C123.692 235.093 123.578 225.793 123.92 222.255" stroke="#2B1F1F" stroke-width="1.202" stroke-linecap="round" stroke-linejoin="round"/>
<path d="M142.094 235.003L142.424 235.459C143.033 236.311 143.433 237.294 143.594 238.328C143.754 239.363 143.67 240.421 143.348 241.417C143.024 242.403 142.438 243.281 141.652 243.957C140.862 244.634 139.899 245.075 138.872 245.231L138.578 245.279C137.922 245.393 137.292 245.573 136.492 245.785" stroke="#2B1F1F" stroke-width="1.202" stroke-linecap="round" stroke-linejoin="round"/>
<path d="M141.902 331.851C128.329 336.016 114.187 338.027 99.9918 337.811C72.6338 337.811 57.4278 331.767 54.3638 330.499C53.5209 330.153 52.8492 329.487 52.4948 328.648C52.1404 327.808 52.1321 326.863 52.4718 326.017L53.6718 322.967L50.2558 319.817C39.2558 312.295 37.6398 299.829 38.3898 289.075C39.6698 270.109 61.2858 245.761 61.2858 245.761" stroke="#2B1F1F" stroke-width="1.202" stroke-linecap="round" stroke-linejoin="round"/>
<path d="M138.67 245.751C138.67 245.751 141.642 249.097 145.446 254.275" stroke="#2B1F1F" stroke-width="1.202" stroke-linecap="round" stroke-linejoin="round"/>
<path d="M46.0378 282.817C50.5138 267.257 65.3398 250.563 65.3398 250.563" stroke="#2B1F1F" stroke-width="1.202" stroke-linecap="round" stroke-linejoin="round"/>
<path d="M137.096 321.885C132.15 323.685 120.664 326.403 100.016 326.403C87.5168 326.435 75.0769 324.689 63.0698 321.217C60.2495 320.37 57.6575 318.896 55.4878 316.905C46.9138 311.035 44.7218 301.825 44.7218 293.187V292.717C44.7218 291.583 44.7758 290.465 44.8538 289.365" stroke="#2B1F1F" stroke-width="1.202" stroke-linecap="round" stroke-linejoin="round"/>
<path d="M59.5478 184.671H99.9858" stroke="#2B1F1F" stroke-width="1.202" stroke-linecap="round" stroke-linejoin="round"/>
<path d="M59.5478 240.655C62.8359 241.391 66.1671 241.919 69.5218 242.235C73.9618 242.555 99.9858 244.035 99.9858 244.035" stroke="#2B1F1F" stroke-width="1.202" stroke-linecap="round" stroke-linejoin="round"/>
<path d="M72.4298 203.511H96.4538" stroke="#2B1F1F" stroke-width="1.202" stroke-linecap="round" stroke-linejoin="round"/>
<path d="M79.7638 221.461H98.3278" stroke="#2B1F1F" stroke-width="1.202" stroke-linecap="round" stroke-linejoin="round"/>
<path d="M130.704 203.511H132.5" stroke="#2B1F1F" stroke-width="1.202" stroke-linecap="round" stroke-linejoin="round"/>
<path d="M135.6 297.247C126.03 298.107 113.666 298.617 100.2 298.617C69.7838 298.617 45.1278 295.979 45.1278 292.717C45.1278 289.455 69.7618 286.817 100.202 286.817C113.912 286.817 125.848 287.351 135.486 288.241" stroke="#2B1F1F" stroke-width="1.202" stroke-linecap="round" stroke-linejoin="round"/>
<path d="M54.3578 330.499C56.7413 333.76 60.1522 336.124 64.0418 337.211C83.3578 343.139 133.604 344.653 149.386 339.385" stroke="#2B1F1F" stroke-width="1.202" stroke-linecap="round" stroke-linejoin="round"/>
<path d="M356.98 280.769H389.222" stroke="#2B1F1F" stroke-width="1.202" stroke-linecap="round" stroke-linejoin="round"/>
<path d="M216.858 280.769H229.39" stroke="#2B1F1F" stroke-width="1.202" stroke-linecap="round" stroke-linejoin="round"/>
<path d="M9.22176 280.769H36.6178" stroke="#2B1F1F" stroke-width="1.202" stroke-linecap="round" stroke-linejoin="round"/>
<path d="M79.8058 134.817C78.9115 133.22 78.4399 131.422 78.4358 129.591C77.7638 107.191 127.152 131.591 127.616 113.215C128.08 94.8393 87.3637 119.991 85.7717 101.235C84.1797 82.4793 124.148 101.025 124.052 86.7273C123.956 72.4293 91.2397 88.3133 90.4517 76.7053C89.6637 65.0973 119.852 74.2553 119.852 64.6493C119.852 55.0433 104.364 61.4293 102.478 53.2333C100.41 44.2773 110.96 41.7113 114.798 44.1273" stroke="#2B1F1F" stroke-width="1.202" stroke-linecap="round" stroke-linejoin="round"/>
<path d="M93.4498 173.443C89.0498 152.199 127.616 170.937 127.616 150.955C127.616 136.399 101.878 143.603 87.6398 139.931" stroke="#2B1F1F" stroke-width="1.202" stroke-linecap="round" stroke-linejoin="round"/>
</svg>
